# File created by Blade
# Date/Time:  Wed Jan 21 16:09:38 2015
# Frame Rate: 120.000 fps
#------------------------------------------------------
:FULLY-SPECIFIED
:DEGREES
155
root 19.362156 35.331402 -20.905448 -173.434064 66.296291 -182.674007
Spine -2.788189 2.972239 0.211208
Head 31.810792 -15.286736 -1.758366
LeftShoulder -17.358026 -29.253629 20.191856
LeftArm -20.272537 -0.560633 -19.323493
LeftForeArm 1.658497 -0.000000 -0.398984
LeftHand -7.922816 -0.000000 3.418791
LeftHandThumb1 -26.253704 0.000000 33.147579
RightShoulder -14.102422 -8.975538 -6.794567
RightArm 8.438416 39.180716 29.949663
RightForeArm -32.695771 -0.000000 6.167665
RightHand -7.304781 -0.000000 1.129399
RightHandThumb1 -24.326973 -0.000000 -32.862282
LeftUpLeg 9.431691 -4.999420 -0.800239
LeftLeg 2.561986 -0.000000 -0.000000
LeftFoot -1.549517 28.783034 9.796782
LeftToeBase -148.410585 -0.000000 0.000000
RightUpLeg -25.478919 16.444692 -3.611908
RightLeg 18.497143 -0.000000 -0.000000
RightFoot -16.842716 -9.952557 13.145311
RightToeBase 26.655711 -0.000000 -0.000000
156
root 19.295186 35.306742 -20.927083 -173.221732 67.037472 -182.506054
Spine -2.946202 2.962704 0.321412
Head 31.603789 -14.965643 -1.872524
LeftShoulder -17.335809 -29.255517 20.245393
LeftArm -19.936344 -0.623213 -19.183468
LeftForeArm 1.726466 -0.000000 -0.532000
LeftHand -7.919148 0.000000 3.254677
LeftHandThumb1 -26.253704 0.000000 33.147579
RightShoulder -14.055249 -8.957153 -6.984947
RightArm 8.473589 39.253887 29.728464
RightForeArm -32.673618 -0.000000 5.992603
RightHand -7.277116 -0.000000 1.324213
RightHandThumb1 -24.326973 -0.000000 -32.862282
LeftUpLeg 9.746901 -4.645909 -0.873599
LeftLeg 2.083570 -0.000000 -0.000000
LeftFoot -0.328050 28.264528 9.117327
LeftToeBase -149.717437 -0.000000 0.000000
RightUpLeg -25.845446 16.629275 -3.668667
RightLeg 18.712674 -0.000000 -0.000000
RightFoot -16.764920 -9.476539 13.348717
RightToeBase 26.503146 -0.000000 -0.000000
157
root 19.234874 35.276138 -20.948984 -172.914987 67.764684 -182.153738
Spine -3.029393 2.922788 0.520769
Head 31.383068 -14.599308 -1.994740
LeftShoulder -17.360850 -29.254854 20.299739
LeftArm -19.552087 -0.894198 -18.950820
LeftForeArm 2.148955 0.000000 -0.735088
LeftHand -7.801321 0.000000 3.347263
LeftHandThumb1 -26.253704 0.000000 33.147579
RightShoulder -13.953215 -8.848458 -7.202385
RightArm 8.384156 39.137197 29.383786
RightForeArm -32.603958 -0.000000 5.888507
RightHand -7.279110 0.000000 1.663979
RightHandThumb1 -24.326973 -0.000000 -32.862282
LeftUpLeg 10.146955 -4.114521 -0.847919
LeftLeg 1.533729 -0.000000 -0.000000
LeftFoot 1.200011 27.713717 8.345842
LeftToeBase -151.260127 -0.000000 0.000000
RightUpLeg -26.111621 16.835150 -3.629991
RightLeg 18.902607 -0.000000 -0.000000
RightFoot -16.738540 -9.031813 13.574424
RightToeBase 26.422125 -0.000000 -0.000000
158
root 19.157489 35.242973 -20.968945 -172.616548 68.483425 -181.868028
Spine -3.133674 2.874780 0.690744
Head 31.104249 -14.258573 -2.153389
LeftShoulder -17.357916 -29.283661 20.329316
LeftArm -19.232088 -0.893888 -18.776275
LeftForeArm 2.157624 -0.000000 -0.859707
LeftHand -7.729469 0.000000 3.201345
LeftHandThumb1 -26.253704 0.000000 33.147579
RightShoulder -13.865842 -8.784332 -7.446699
RightArm 8.428366 39.220935 29.170288
RightForeArm -32.697041 0.000000 5.707415
RightHand -7.275583 0.000000 1.857946
RightHandThumb1 -24.326973 -0.000000 -32.862282
LeftUpLeg 10.446462 -3.599212 -0.869102
LeftLeg 0.986349 -0.000000 -0.000000
LeftFoot 2.906286 27.170882 7.418856
LeftToeBase -153.079785 -0.000000 0.000000
RightUpLeg -26.504229 16.999489 -3.643945
RightLeg 19.180563 -0.000000 -0.000000
RightFoot -16.701687 -8.576751 13.773546
RightToeBase 26.356875 -0.000000 -0.000000
159
root 19.081355 35.206771 -20.989202 -172.229443 69.156312 -181.484807
Spine -3.260724 2.797323 0.891592
Head 30.843728 -13.917700 -2.277165
LeftShoulder -17.351157 -29.352952 20.386152
LeftArm -18.941648 -0.843348 -18.617705
LeftForeArm 2.278304 -0.000000 -0.932122
LeftHand -7.781495 -0.000000 3.203897
LeftHandThumb1 -26.253704 0.000000 33.147579
RightShoulder -13.789739 -8.697594 -7.641695
RightArm 8.453801 39.232096 28.861262
RightForeArm -32.727337 -0.000000 5.565295
RightHand -7.243555 0.000000 2.097853
RightHandThumb1 -24.326973 -0.000000 -32.862282
LeftUpLeg 10.748913 -3.155894 -0.858419
LeftLeg 0.428363 -0.000000 -0.000000
LeftFoot 4.488758 26.993947 6.686907
LeftToeBase -154.394182 -0.000000 0.000000
RightUpLeg -26.886569 17.135023 -3.621935
RightLeg 19.461065 -0.000000 -0.000000
RightFoot -16.661615 -8.111937 13.948919
RightToeBase 26.363823 -0.000000 -0.000000
160
root 19.001395 35.168257 -21.014234 -171.915165 69.831532 -181.137450
Spine -3.332528 2.731925 1.071335
Head 30.580938 -13.570808 -2.371723
LeftShoulder -17.306767 -29.489796 20.459006
LeftArm -18.751093 -0.694692 -18.480045
LeftForeArm 2.285324 -0.000000 -0.931560
LeftHand -7.712491 -0.000000 3.209337
LeftHandThumb1 -26.253704 0.000000 33.147579
RightShoulder -13.697305 -8.569300 -7.852313
RightArm 8.421857 39.249527 28.525340
RightForeArm -32.758845 -0.000000 5.466834
RightHand -7.264758 -0.000000 2.405940
RightHandThumb1 -24.326973 -0.000000 -32.862282
LeftUpLeg 11.072584 -2.799344 -0.907878
LeftLeg -0.067052 -0.000000 0.000000
LeftFoot 5.350237 27.086992 6.323886
LeftToeBase -156.588614 -0.000000 0.000000
RightUpLeg -27.247942 17.211068 -3.597439
RightLeg 19.785082 -0.000000 -0.000000
RightFoot -16.614848 -7.588574 14.008169
RightToeBase 26.203925 -0.000000 -0.000000
161
root 18.919000 35.128143 -21.041631 -171.669631 70.506350 -180.867747
Spine -3.416888 2.672175 1.193877
Head 30.327529 -13.310909 -2.450333
LeftShoulder -17.284545 -29.621962 20.573830
LeftArm -18.509051 -0.982730 -18.215861
LeftForeArm 2.696008 -0.000000 -1.003945
LeftHand -7.706944 -0.000000 3.027241
LeftHandThumb1 -26.253704 0.000000 33.147579
RightShoulder -13.615888 -8.438971 -7.990203
RightArm 8.397218 39.168895 28.119692
RightForeArm -32.706016 -0.000000 5.343972
RightHand -7.282828 -0.000000 2.568017
RightHandThumb1 -24.326973 -0.000000 -32.862282
LeftUpLeg 11.359123 -2.450952 -0.995434
LeftLeg -0.602919 -0.000000 0.000000
LeftFoot 5.412337 27.018980 6.325159
LeftToeBase -156.974203 -0.000000 0.000000
RightUpLeg -27.639111 17.326070 -3.624351
RightLeg 20.140824 -0.000000 -0.000000
RightFoot -16.534938 -7.102176 14.092817
RightToeBase 26.168378 -0.000000 -0.000000
162
root 18.828561 35.088700 -21.066922 -171.500177 71.105511 -180.687459
Spine -3.495676 2.494341 1.278164
Head 30.051919 -12.980197 -2.457444
LeftShoulder -17.362746 -29.512446 20.654509
LeftArm -18.010133 -1.656447 -17.914187
LeftForeArm 3.305627 -0.000000 -1.222551
LeftHand -7.571145 -0.000000 3.015836
LeftHandThumb1 -26.253704 0.000000 33.147579
RightShoulder -13.471424 -8.302815 -8.135770
RightArm 8.350451 39.229881 27.758857
RightForeArm -32.747358 0.000000 5.315768
RightHand -7.245771 -0.000000 2.701160
RightHandThumb1 -24.326973 -0.000000 -32.862282
LeftUpLeg 11.579604 -2.074405 -1.076941
LeftLeg -1.162593 -0.000000 0.000000
LeftFoot 4.936188 26.972246 6.558796
LeftToeBase -155.524640 -0.000000 0.000000
RightUpLeg -28.053248 17.387522 -3.679711
RightLeg 20.522963 -0.000000 -0.000000
RightFoot -16.457360 -6.594174 14.151429
RightToeBase 25.887649 -0.000000 -0.000000
163
root 18.736391 35.046071 -21.097056 -171.394373 71.727887 -180.569786
Spine -3.577154 2.385541 1.335365
Head 29.806076 -12.740721 -2.491788
LeftShoulder -17.286369 -29.661287 20.656886
LeftArm -17.768789 -1.564680 -17.639605
LeftForeArm 3.385140 -0.000000 -1.248499
LeftHand -7.520294 0.000000 2.990871
LeftHandThumb1 -26.253704 0.000000 33.147579
RightShoulder -13.385681 -8.176540 -8.282309
RightArm 8.310518 39.216520 27.420002
RightForeArm -32.825007 -0.000000 5.401070
RightHand -7.336289 -0.000000 2.931544
RightHandThumb1 -24.326973 -0.000000 -32.862282
LeftUpLeg 11.809252 -1.795047 -1.234883
LeftLeg -1.624092 -0.000000 0.000000
LeftFoot 4.438803 26.878844 6.840006
LeftToeBase -155.047969 -0.000000 0.000000
RightUpLeg -28.480884 17.430043 -3.747525
RightLeg 20.932643 -0.000000 -0.000000
RightFoot -16.394098 -6.077435 14.128661
RightToeBase 25.909643 -0.000000 -0.000000
164
root 18.640283 35.001739 -21.128992 -171.401068 72.322810 -180.556673
Spine -3.633645 2.272015 1.343998
Head 29.535295 -12.466642 -2.473988
LeftShoulder -17.062679 -30.045186 20.578320
LeftArm -17.948979 0.752430 -17.858915
LeftForeArm 1.379374 -0.000000 -0.640567
LeftHand -7.909109 0.000000 2.923711
LeftHandThumb1 -26.253704 0.000000 33.147579
RightShoulder -13.368351 -8.126970 -8.369598
RightArm 8.465765 39.356412 27.171422
RightForeArm -32.923519 -0.000000 5.289711
RightHand -7.297819 -0.000000 2.871515
RightHandThumb1 -24.326973 -0.000000 -32.862282
LeftUpLeg 12.009880 -1.521441 -1.439497
LeftLeg -1.957833 -0.000000 0.000000
LeftFoot 4.127304 26.848016 7.131612
LeftToeBase -154.656235 -0.000000 0.000000
RightUpLeg -28.915862 17.423343 -3.833124
RightLeg 21.382328 -0.000000 -0.000000
RightFoot -16.342691 -5.559204 14.092358
RightToeBase 26.032610 -0.000000 -0.000000
